<svg width="77" height="77" viewBox="0 0 77 77" fill="none" xmlns="http://www.w3.org/2000/svg">
<path d="M42.7273 76.5454L34.2727 76.5454L34.2727 72.3181L30.0455 72.3181L30.0455 68.0909L25.8182 68.0909L25.8182 63.8636L21.5909 63.8636L21.5909 59.6363L17.3637 59.6363L17.3637 55.409L13.1364 55.409L13.1364 51.1818L8.9091 51.1818L8.9091 46.9545L4.68183 46.9545L4.68183 42.7272L0.454558 42.7272L0.454557 34.2727L4.68183 34.2727L4.68183 30.0454L8.9091 30.0454L8.9091 25.8181L13.1364 25.8181L13.1364 21.5909L17.3636 21.5909L17.3636 17.3636L21.5909 17.3636L21.5909 13.1363L25.8182 13.1363L25.8182 8.90904L30.0455 8.90904L30.0455 4.68177L34.2727 4.68177L34.2727 0.454497L42.7273 0.454496L42.7273 21.5909L76.5455 21.5909L76.5455 55.409L42.7273 55.409L42.7273 76.5454ZM34.2727 59.6363L34.2727 46.9545L68.0909 46.9545L68.0909 30.0454L34.2727 30.0454L34.2727 17.3636L30.0455 17.3636L30.0455 21.5909L25.8182 21.5909L25.8182 25.8181L21.5909 25.8181L21.5909 30.0454L17.3636 30.0454L17.3636 34.2727L13.1364 34.2727L13.1364 42.7272L17.3636 42.7272L17.3636 46.9545L21.5909 46.9545L21.5909 51.1818L25.8182 51.1818L25.8182 55.409L30.0455 55.409L30.0455 59.6363L34.2727 59.6363Z" fill="#F9A03F"/>
</svg>
