<svg width="77" height="77" xmlns="http://www.w3.org/2000/svg" fill="none">

 <g>
  <title>Layer 1</title>
  <path transform="rotate(-180, 38.5, 38.5)" id="svg_1" fill="#F9A03F" d="m42.7273,76.5454l-8.4546,0l0,-4.2273l-4.2272,0l0,-4.2272l-4.2273,0l0,-4.2273l-4.2273,0l0,-4.2273l-4.2272,0l0,-4.2273l-4.2273,0l0,-4.2272l-4.2273,0l0,-4.2273l-4.22727,0l0,-4.2273l-4.22727,0l0,-8.4545l4.22727,0l0,-4.2273l4.22727,0l0,-4.2273l4.2273,0l0,-4.2272l4.2272,0l0,-4.2273l4.2273,0l0,-4.2273l4.2273,0l0,-4.22726l4.2273,0l0,-4.22727l4.2272,0l0,-4.22727l8.4546,0l0,21.1364l33.8182,0l0,33.8181l-33.8182,0l0,21.1364zm-8.4546,-16.9091l0,-12.6818l33.8182,0l0,-16.9091l-33.8182,0l0,-12.6818l-4.2272,0l0,4.2273l-4.2273,0l0,4.2272l-4.2273,0l0,4.2273l-4.2273,0l0,4.2273l-4.2272,0l0,8.4545l4.2272,0l0,4.2273l4.2273,0l0,4.2273l4.2273,0l0,4.2272l4.2273,0l0,4.2273l4.2272,0z"/>
 </g>
</svg>