<svg width="36" height="36" viewBox="0 0 36 36" fill="none" xmlns="http://www.w3.org/2000/svg">
<g id="ph:bird-fill" clip-path="url(#clip0_11_78)">
<path id="Vector" d="M2.75059 10.3133L6.01731 8.13647C6.62476 6.2147 7.90007 4.57386 9.61245 3.51087C11.3248 2.44788 13.3612 2.03297 15.3529 2.34123C17.3447 2.64949 19.1604 3.66054 20.4713 5.19144C21.7822 6.72233 22.5019 8.67192 22.5 10.6874V13.1048L35.7539 29.6718C35.8864 29.8373 35.9694 30.0369 35.9934 30.2475C36.0174 30.4581 35.9814 30.6713 35.8896 30.8624C35.7977 31.0534 35.6537 31.2147 35.4742 31.3275C35.2947 31.4403 35.087 31.5 34.875 31.4999H20.25C16.3724 31.4958 12.6549 29.9537 9.91305 27.2118C7.17122 24.47 5.62906 20.7524 5.62497 16.8749V14.1018L2.75059 12.1865C2.59628 12.0838 2.46973 11.9445 2.3822 11.7812C2.29467 11.6178 2.24887 11.4353 2.24887 11.2499C2.24887 11.0645 2.29467 10.8821 2.3822 10.7187C2.46973 10.5553 2.59628 10.416 2.75059 10.3133ZM20.5101 19.8449L26.1351 26.5949C26.3261 26.8243 26.6003 26.9684 26.8975 26.9956C27.1948 27.0227 27.4906 26.9307 27.72 26.7398C27.9493 26.5488 28.0935 26.2745 28.1206 25.9773C28.1478 25.6801 28.0558 25.3843 27.8648 25.1549L22.2398 18.4049C22.1453 18.2913 22.0293 18.1975 21.8984 18.1288C21.7676 18.06 21.6246 18.0177 21.4774 18.0043C21.3302 17.9908 21.1818 18.0065 21.0407 18.0504C20.8996 18.0943 20.7685 18.1655 20.655 18.2601C20.5414 18.3546 20.4476 18.4706 20.3788 18.6014C20.3101 18.7322 20.2678 18.8753 20.2543 19.0225C20.2409 19.1697 20.2565 19.318 20.3004 19.4591C20.3443 19.6003 20.4156 19.7313 20.5101 19.8449ZM12.9375 11.2499C13.2712 11.2499 13.5975 11.1509 13.875 10.9655C14.1525 10.7801 14.3688 10.5165 14.4965 10.2082C14.6242 9.89984 14.6577 9.56054 14.5925 9.23319C14.5274 8.90585 14.3667 8.60517 14.1307 8.36917C13.8947 8.13316 13.594 7.97245 13.2667 7.90733C12.9393 7.84222 12.6 7.87564 12.2917 8.00336C11.9833 8.13108 11.7198 8.34738 11.5344 8.62488C11.3489 8.90239 11.25 9.22865 11.25 9.56241C11.25 10.01 11.4278 10.4392 11.7442 10.7557C12.0607 11.0721 12.4899 11.2499 12.9375 11.2499Z" fill="#5A2404"/>
</g>
<defs>
<clipPath id="clip0_11_78">
<rect width="36" height="36" fill="white" transform="matrix(-1 0 0 1 36 0)"/>
</clipPath>
</defs>
</svg>
