<svg width="74" height="74" viewBox="0 0 74 74" fill="none" xmlns="http://www.w3.org/2000/svg">
<g id="jam:gamepad-retro" clip-path="url(#clip0_45_2)">
<path id="Vector" d="M21.5838 33.9167H24.6671C25.4848 33.9167 26.2691 34.2415 26.8473 34.8198C27.4256 35.398 27.7504 36.1823 27.7504 37C27.7504 37.8178 27.4256 38.602 26.8473 39.1802C26.2691 39.7585 25.4848 40.0833 24.6671 40.0833H21.5838V43.1667C21.5838 43.9844 21.2589 44.7687 20.6807 45.3469C20.1024 45.9251 19.3182 46.25 18.5004 46.25C17.6827 46.25 16.8984 45.9251 16.3202 45.3469C15.7419 44.7687 15.4171 43.9844 15.4171 43.1667V40.0833H12.3338C11.516 40.0833 10.7317 39.7585 10.1535 39.1802C9.57527 38.602 9.25042 37.8178 9.25042 37C9.25042 36.1823 9.57527 35.398 10.1535 34.8198C10.7317 34.2415 11.516 33.9167 12.3338 33.9167H15.4171V30.8333C15.4171 30.0156 15.7419 29.2313 16.3202 28.6531C16.8984 28.0749 17.6827 27.75 18.5004 27.75C19.3182 27.75 20.1024 28.0749 20.6807 28.6531C21.2589 29.2313 21.5838 30.0156 21.5838 30.8333V33.9167ZM18.5004 18.5H55.5004C58.5864 18.4999 61.6233 19.2718 64.3347 20.7454C67.0461 22.2189 69.3458 24.3473 71.0244 26.9368C72.703 29.5262 73.7072 32.4944 73.9456 35.5711C74.1839 38.6479 73.6488 41.7353 72.389 44.5524C71.1292 47.3695 69.1848 49.8267 66.7327 51.7002C64.2806 53.5738 61.3987 54.8042 58.3496 55.2794C55.3005 55.7545 52.1809 55.4594 49.275 54.4209C46.369 53.3824 43.769 51.6335 41.7118 49.3333H32.2891C30.2318 51.6335 27.6318 53.3824 24.7259 54.4209C21.8199 55.4594 18.7004 55.7545 15.6512 55.2794C12.6021 54.8042 9.72029 53.5738 7.26819 51.7002C4.81608 49.8267 2.8716 47.3695 1.61181 44.5524C0.352011 41.7353 -0.183078 38.6479 0.0552662 35.5711C0.29361 32.4944 1.29781 29.5262 2.97644 26.9368C4.65506 24.3473 6.95477 22.2189 9.66616 20.7454C12.3776 19.2718 15.4145 18.4999 18.5004 18.5ZM18.5004 24.6667C16.443 24.6667 14.4183 25.1813 12.6107 26.1638C10.803 27.1463 9.26987 28.5654 8.15085 30.2919C7.03183 32.0184 6.36249 33.9973 6.20378 36.0486C6.04507 38.0999 6.40204 40.1582 7.24217 42.0363C8.0823 43.9143 9.37891 45.5524 11.0139 46.8012C12.6489 48.0501 14.5704 48.8701 16.6033 49.1866C18.6362 49.503 20.716 49.3059 22.6532 48.6131C24.5905 47.9204 26.3237 46.754 27.6949 45.2202L29.5326 43.1667H44.4683L46.3059 45.2202C47.6772 46.754 49.4104 47.9204 51.3476 48.6131C53.2849 49.3059 55.3646 49.503 57.3976 49.1866C59.4305 48.8701 61.3519 48.0501 62.9869 46.8012C64.6219 45.5524 65.9185 43.9143 66.7587 42.0363C67.5988 40.1582 67.9558 38.0999 67.7971 36.0486C67.6384 33.9973 66.969 32.0184 65.85 30.2919C64.731 28.5654 63.1978 27.1463 61.3902 26.1638C59.5825 25.1813 57.5578 24.6667 55.5004 24.6667H18.5004ZM55.5004 33.9167C54.6827 33.9167 53.8984 33.5918 53.3202 33.0136C52.7419 32.4353 52.4171 31.6511 52.4171 30.8333C52.4171 30.0156 52.7419 29.2313 53.3202 28.6531C53.8984 28.0749 54.6827 27.75 55.5004 27.75C56.3182 27.75 57.1024 28.0749 57.6807 28.6531C58.2589 29.2313 58.5838 30.0156 58.5838 30.8333C58.5838 31.6511 58.2589 32.4353 57.6807 33.0136C57.1024 33.5918 56.3182 33.9167 55.5004 33.9167ZM49.3338 40.0833C48.516 40.0833 47.7317 39.7585 47.1535 39.1802C46.5753 38.602 46.2504 37.8178 46.2504 37C46.2504 36.1823 46.5753 35.398 47.1535 34.8198C47.7317 34.2415 48.516 33.9167 49.3338 33.9167C50.1515 33.9167 50.9358 34.2415 51.514 34.8198C52.0922 35.398 52.4171 36.1823 52.4171 37C52.4171 37.8178 52.0922 38.602 51.514 39.1802C50.9358 39.7585 50.1515 40.0833 49.3338 40.0833ZM61.6671 40.0833C60.8493 40.0833 60.0651 39.7585 59.4868 39.1802C58.9086 38.602 58.5838 37.8178 58.5838 37C58.5838 36.1823 58.9086 35.398 59.4868 34.8198C60.0651 34.2415 60.8493 33.9167 61.6671 33.9167C62.4848 33.9167 63.2691 34.2415 63.8473 34.8198C64.4256 35.398 64.7504 36.1823 64.7504 37C64.7504 37.8178 64.4256 38.602 63.8473 39.1802C63.2691 39.7585 62.4848 40.0833 61.6671 40.0833ZM55.5004 46.25C54.6827 46.25 53.8984 45.9251 53.3202 45.3469C52.7419 44.7687 52.4171 43.9844 52.4171 43.1667C52.4171 42.3489 52.7419 41.5647 53.3202 40.9864C53.8984 40.4082 54.6827 40.0833 55.5004 40.0833C56.3182 40.0833 57.1024 40.4082 57.6807 40.9864C58.2589 41.5647 58.5838 42.3489 58.5838 43.1667C58.5838 43.9844 58.2589 44.7687 57.6807 45.3469C57.1024 45.9251 56.3182 46.25 55.5004 46.25Z" fill="#5A2404"/>
</g>
<defs>
<clipPath id="clip0_45_2">
<rect width="74" height="74" fill="white"/>
</clipPath>
</defs>
</svg>
