<svg width="45" height="50" viewBox="0 0 45 50" fill="none" xmlns="http://www.w3.org/2000/svg">
<g id="Logo">
<path id="Vector" fill-rule="evenodd" clip-rule="evenodd" d="M22.3569 0H22.6431C27.4177 0 31.1954 -3.41165e-08 34.1515 0.437299C37.2046 0.890624 39.6277 1.84307 41.5131 3.92195C43.3754 5.97336 44.2085 8.56968 44.6054 11.8437C45 15.0651 45 19.1976 45 24.4933V24.7314C45 30.0271 45 34.1597 44.6077 37.3787C44.2085 40.6573 43.3754 43.2514 41.5154 45.3028C39.6277 47.3817 37.2069 48.3341 34.1515 48.7874C31.1954 49.2247 27.4177 49.2247 22.6454 49.2247H22.3546C17.5823 49.2247 13.8046 49.2247 10.8485 48.7874C7.79308 48.3341 5.37231 47.3817 3.48692 45.3028C1.62462 43.2514 0.791538 40.655 0.394615 37.381C0 34.1597 0 30.0271 0 24.7314V24.4933C0 19.1976 1.71936e-07 15.0651 0.392308 11.846C0.791539 8.56739 1.62462 5.97336 3.48462 3.92195C5.37231 1.84307 7.79308 0.890624 10.8485 0.437299C13.8046 -3.41165e-08 17.5823 0 22.3569 0ZM11.3608 3.83495C8.76 4.21959 7.21385 4.94537 6.05769 6.21834C4.88077 7.51879 4.18846 9.30004 3.82846 12.2581C3.46385 15.2482 3.46154 19.1725 3.46154 24.6124C3.46154 30.0523 3.46385 33.9765 3.83077 36.9666C4.19077 39.9247 4.87846 41.7059 6.05769 43.0064C7.21385 44.2794 8.76 45.0051 11.3608 45.3898C14.0308 45.7859 17.55 45.7904 22.5 45.7904C27.45 45.7904 30.9692 45.7859 33.6392 45.3898C36.24 45.0051 37.7862 44.2794 38.94 43.0064C40.1215 41.7059 40.8092 39.9247 41.1715 36.9666C41.5362 33.9765 41.5385 30.0523 41.5385 24.6124C41.5385 19.1725 41.5362 15.2482 41.1692 12.2581C40.8092 9.30004 40.1215 7.51879 38.9423 6.21834C37.7862 4.94537 36.24 4.21959 33.6392 3.83495C30.9692 3.43886 27.45 3.43428 22.5 3.43428C17.55 3.43428 14.0308 3.43886 11.3608 3.83495ZM15.3831 9.15809H29.6169C30.4938 9.15809 31.2554 9.15809 31.92 9.33438C32.8001 9.56822 33.6027 10.0277 34.2472 10.6667C34.8916 11.3057 35.3553 12.1017 35.5915 12.9747C35.7715 13.6387 35.7715 14.3896 35.7692 15.2642V15.6466C35.7692 16.5166 35.7692 17.2722 35.5915 17.9315C35.3558 18.8047 34.8927 19.601 34.2486 20.2404C33.6046 20.8798 32.8023 21.3398 31.9223 21.5742C31.2531 21.7527 30.4962 21.7527 29.6146 21.7505H15.3854C14.5085 21.7505 13.7469 21.7505 13.0823 21.5742C12.2022 21.3403 11.3996 20.8808 10.7551 20.2418C10.1107 19.6028 9.64702 18.8069 9.41077 17.9338C9.23077 17.2699 9.23308 16.5189 9.23308 15.6443C9.23322 15.5169 9.23322 15.3894 9.23308 15.262C9.23308 14.3919 9.23308 13.6364 9.41077 12.977C9.64647 12.1038 10.1096 11.3075 10.7537 10.6682C11.3977 10.0288 12.2 9.56877 13.08 9.33438C13.7492 9.1558 14.5062 9.15809 15.3877 9.15809H15.3831ZM15.5769 12.5924C14.3931 12.5924 14.1392 12.6061 13.9754 12.6519C13.6822 12.73 13.4148 12.8832 13.2001 13.0962C12.9854 13.3092 12.831 13.5744 12.7523 13.8653C12.7062 14.0279 12.6923 14.2775 12.6923 15.4543C12.6923 16.6288 12.7062 16.8806 12.7523 17.0432C12.831 17.3341 12.9854 17.5994 13.2001 17.8124C13.4148 18.0254 13.6822 18.1786 13.9754 18.2566C14.1392 18.3024 14.3908 18.3162 15.5769 18.3162H29.4231C30.6069 18.3162 30.8608 18.3024 31.0246 18.2566C31.3178 18.1786 31.5852 18.0254 31.7999 17.8124C32.0146 17.5994 32.169 17.3341 32.2477 17.0432C32.2938 16.8806 32.3077 16.6311 32.3077 15.4543C32.3077 14.2797 32.2938 14.0279 32.2477 13.8653C32.169 13.5744 32.0146 13.3092 31.7999 13.0962C31.5852 12.8832 31.3178 12.73 31.0246 12.6519C30.8608 12.6061 30.6092 12.5924 29.4231 12.5924H15.5769ZM14.4231 27.4743C14.8821 27.4743 15.3223 27.6552 15.6469 27.9772C15.9715 28.2992 16.1538 28.736 16.1538 29.1914V30.9085H17.8846C18.3436 30.9085 18.7839 31.0895 19.1085 31.4115C19.433 31.7335 19.6154 32.1703 19.6154 32.6257C19.6154 33.0811 19.433 33.5179 19.1085 33.8399C18.7839 34.1619 18.3436 34.3428 17.8846 34.3428H16.1538V36.06C16.1538 36.5154 15.9715 36.9521 15.6469 37.2742C15.3223 37.5962 14.8821 37.7771 14.4231 37.7771C13.964 37.7771 13.5238 37.5962 13.1992 37.2742C12.8747 36.9521 12.6923 36.5154 12.6923 36.06V34.3428H10.9615C10.5025 34.3428 10.0623 34.1619 9.7377 33.8399C9.41312 33.5179 9.23077 33.0811 9.23077 32.6257C9.23077 32.1703 9.41312 31.7335 9.7377 31.4115C10.0623 31.0895 10.5025 30.9085 10.9615 30.9085H12.6923V29.1914C12.6923 28.736 12.8747 28.2992 13.1992 27.9772C13.5238 27.6552 13.964 27.4743 14.4231 27.4743Z" fill="#5A2404"/>
<path id="Vector_2" d="M32.4992 28.8091C32.4992 29.3149 32.2967 29.8 31.9362 30.1576C31.5757 30.5153 31.0868 30.7162 30.5769 30.7162C30.0671 30.7162 29.5782 30.5153 29.2177 30.1576C28.8572 29.8 28.6546 29.3149 28.6546 28.8091C28.6546 28.3032 28.8572 27.8181 29.2177 27.4605C29.5782 27.1028 30.0671 26.9019 30.5769 26.9019C31.0868 26.9019 31.5757 27.1028 31.9362 27.4605C32.2967 27.8181 32.4992 28.3032 32.4992 28.8091ZM32.4992 36.4423C32.4992 36.9481 32.2967 37.4332 31.9362 37.7909C31.5757 38.1486 31.0868 38.3495 30.5769 38.3495C30.0671 38.3495 29.5782 38.1486 29.2177 37.7909C28.8572 37.4332 28.6546 36.9481 28.6546 36.4423C28.6546 35.9365 28.8572 35.4514 29.2177 35.0937C29.5782 34.7361 30.0671 34.5351 30.5769 34.5351C31.0868 34.5351 31.5757 34.7361 31.9362 35.0937C32.2967 35.4514 32.4992 35.9365 32.4992 36.4423ZM28.6546 32.6257C28.6546 33.1318 28.452 33.6172 28.0913 33.9751C27.7305 34.3329 27.2413 34.534 26.7312 34.534C26.221 34.534 25.7318 34.3329 25.3711 33.9751C25.0104 33.6172 24.8077 33.1318 24.8077 32.6257C24.8077 32.1196 25.0104 31.6342 25.3711 31.2763C25.7318 30.9184 26.221 30.7174 26.7312 30.7174C27.2413 30.7174 27.7305 30.9184 28.0913 31.2763C28.452 31.6342 28.6546 32.1196 28.6546 32.6257ZM36.3462 32.6257C36.3462 33.1318 36.1435 33.6172 35.7828 33.9751C35.4221 34.3329 34.9328 34.534 34.4227 34.534C33.9126 34.534 33.4233 34.3329 33.0626 33.9751C32.7019 33.6172 32.4992 33.1318 32.4992 32.6257C32.4992 32.1196 32.7019 31.6342 33.0626 31.2763C33.4233 30.9184 33.9126 30.7174 34.4227 30.7174C34.9328 30.7174 35.4221 30.9184 35.7828 31.2763C36.1435 31.6342 36.3462 32.1196 36.3462 32.6257Z" fill="#5A2404"/>
</g>
</svg>
