<svg width="31" height="31" viewBox="0 0 31 31" fill="none" xmlns="http://www.w3.org/2000/svg">
<g id="ic:baseline-tiktok">
<path id="Vector" d="M21.0525 7.3517C20.189 6.36594 19.7132 5.10001 19.7136 3.78955H15.8104V19.4529C15.7802 20.3005 15.4224 21.1034 14.8121 21.6924C14.2019 22.2814 13.3869 22.6107 12.5387 22.6108C10.745 22.6108 9.25449 21.1455 9.25449 19.3266C9.25449 17.1539 11.3514 15.5244 13.5114 16.1939V12.2023C9.15343 11.6212 5.33865 15.0065 5.33865 19.3266C5.33865 23.5329 8.82501 26.5266 12.5261 26.5266C16.4925 26.5266 19.7136 23.3056 19.7136 19.3266V11.3812C21.2963 12.5179 23.1966 13.1277 25.1452 13.1244V9.22119C25.1452 9.22119 22.7704 9.33488 21.0525 7.3517Z" fill="#813405"/>
</g>
</svg>
