<svg width="31" height="31" viewBox="0 0 31 31" fill="none" xmlns="http://www.w3.org/2000/svg">
<g id="mdi:twitter">
<path id="Vector" d="M28.3708 7.57908C27.3982 8.02119 26.3498 8.31172 25.2634 8.45067C26.375 7.78119 27.234 6.72012 27.6382 5.44432C26.5898 6.0759 25.4276 6.51801 24.2024 6.77065C23.2045 5.68432 21.8023 5.05273 20.2107 5.05273C17.2423 5.05273 14.817 7.47802 14.817 10.4717C14.817 10.9012 14.8675 11.3181 14.956 11.7097C10.4591 11.4823 6.45481 9.32226 3.78951 6.05064C3.32214 6.84644 3.05687 7.78119 3.05687 8.76646C3.05687 10.6486 4.00425 12.316 5.46953 13.2634C4.57268 13.2634 3.73899 13.0107 3.00635 12.6318V12.6697C3.00635 15.2971 4.87584 17.495 7.35166 17.9876C6.55678 18.2051 5.72229 18.2354 4.91374 18.076C5.25682 19.1529 5.92874 20.0951 6.83504 20.7703C7.74134 21.4455 8.83645 21.8197 9.96642 21.8403C8.05099 23.3567 5.67669 24.1763 3.23372 24.1645C2.80424 24.1645 2.37476 24.1393 1.94528 24.0887C4.34531 25.6298 7.20008 26.5267 10.257 26.5267C20.2107 26.5267 25.6803 18.2655 25.6803 11.1033C25.6803 10.8633 25.6803 10.636 25.6677 10.396C26.7287 9.63805 27.6382 8.67804 28.3708 7.57908Z" fill="#813405"/>
</g>
</svg>
